<svg width="24" height="24" viewBox="0 0 24 24" fill="none" xmlns="http://www.w3.org/2000/svg">
<path d="M22.6672 8.25C22.6672 7 22.1257 5.82812 21.3343 4.96875V8.25C21.3343 10.3203 19.5433 12 17.3358 12C15.1283 12 13.3374 10.3203 13.3374 8.25V4.96875C12.5043 5.82812 12.0045 7 12.0045 8.25C12.0045 11.0234 14.3786 13.25 17.3358 13.25C20.2514 13.25 22.6672 11.0234 22.6672 8.25ZM15.7948 5.51562C15.9197 5.67188 16.128 5.75 16.3362 5.75H18.3355C18.5437 5.75 18.7103 5.67188 18.8353 5.51562L20.0848 3.99219C19.2518 3.52344 18.3355 3.25 17.3358 3.25C16.2946 3.25 15.3783 3.52344 14.5452 3.99219L15.7948 5.51562ZM18.6687 14.3828V20.75C18.6687 21.4531 18.0439 22 17.3358 22C16.5861 22 16.003 21.4531 16.003 20.75V15.2812L10.3385 19.5H12.6709C13.379 19.5 14.0038 20.0859 14.0038 20.75C14.0038 21.4531 13.379 22 12.6709 22H6.6732C4.4657 22 2.67471 20.3203 2.67471 18.25L2.63306 9.53906C2.63306 8.91406 2.13325 8.36719 1.46683 8.28906L1.17528 8.25C0.42556 8.17188 -0.0742514 7.54688 0.00905051 6.84375C0.0923524 6.17969 0.758768 5.71094 1.50848 5.78906L1.80004 5.82812C3.79929 6.0625 5.34037 7.66406 5.34037 9.53906V12.8594C6.54825 11.1406 8.50584 9.92969 10.7966 9.61719C10.7133 9.1875 10.6717 8.71875 10.6717 8.25C10.6717 4.8125 13.6289 2 17.3358 2C21.0011 2 24 4.8125 24 8.25C24 11.2969 21.7092 13.7969 18.6687 14.3828ZM15.3366 8.25C15.3366 8.60156 15.6282 8.875 16.003 8.875C16.3362 8.875 16.6694 8.60156 16.6694 8.25C16.6694 7.9375 16.3362 7.625 16.003 7.625C15.6282 7.625 15.3366 7.9375 15.3366 8.25ZM18.6687 7.625C18.2938 7.625 18.0023 7.9375 18.0023 8.25C18.0023 8.60156 18.2938 8.875 18.6687 8.875C19.0019 8.875 19.3351 8.60156 19.3351 8.25C19.3351 7.9375 19.0019 7.625 18.6687 7.625ZM8.29759 2.50781L8.75575 3.64062C8.7974 3.71875 8.83905 3.75781 8.92235 3.79688L10.1302 4.22656C10.4218 4.34375 10.4218 4.69531 10.1302 4.8125L8.92235 5.24219C8.83905 5.24219 8.7974 5.32031 8.75575 5.39844L8.29759 6.53125C8.17264 6.80469 7.79778 6.80469 7.67283 6.53125L7.21467 5.39844C7.21467 5.32031 7.13136 5.24219 7.04806 5.24219L5.84018 4.8125C5.54863 4.69531 5.54863 4.34375 5.84018 4.22656L7.04806 3.79688C7.13136 3.75781 7.21467 3.71875 7.21467 3.64062L7.67283 2.50781C7.79778 2.23438 8.17264 2.23438 8.29759 2.50781Z" fill="black"/>
</svg>
