<svg xmlns="http://www.w3.org/2000/svg" width="100%" height="100%" viewBox="0 0 24 24">
<path d="M11.45 8.625C8.87187 8.625 6.775 10.5937 6.5 13.125H4.3C2.47812 13.125 1 11.6133 1 9.75C1 7.88672 2.47812 6.375 4.3 6.375H4.33437C4.575 4.47656 6.19062 3 8.15 3C9.76562 3 11.175 4.08984 11.725 5.56641C12.1375 5.35547 12.6187 5.25 13.1 5.25C14.9219 5.25 16.4 6.76172 16.4 8.625C16.4 9.08203 16.2969 9.46875 16.1594 9.85547C15.7812 9.92578 15.4031 10.0664 15.0594 10.2773C14.1656 9.25781 12.8594 8.625 11.45 8.625ZM8.7 21C6.87812 21 5.4 19.4883 5.4 17.625C5.4 16.1484 6.32812 14.8828 7.63437 14.4258C7.6 14.2148 7.6 13.9687 7.6 13.6875C7.6 11.543 9.31875 9.75 11.45 9.75C12.9281 9.75 14.2 10.6289 14.8531 11.8594C15.3344 11.2617 16.0906 10.875 16.95 10.875C18.4625 10.875 19.7 12.1406 19.7 13.6875C19.7 13.8984 19.6656 14.0742 19.6312 14.25C19.6312 14.25 19.6656 14.25 19.7 14.25C21.5219 14.25 23 15.7617 23 17.625C23 19.4883 21.5219 21 19.7 21H8.7Z"/>
</svg>
