<svg xmlns="http://www.w3.org/2000/svg" width="100%" height="100%" viewBox="0 0 24 24">
<path d="M10.8726 2.43988C11.4973 1.85337 12.4734 1.85337 13.0981 2.43988L15.9873 5.33333C16.4558 5.84164 16.4558 6.62366 15.9873 7.13196L12.8638 10.2209C12.3953 10.7292 11.5754 10.7292 11.1069 10.2209L7.98341 7.09286C7.51489 6.62366 7.51489 5.84164 7.98341 5.33333L10.8726 2.43988ZM7.12445 7.99218L10.2089 11.1202C10.7164 11.5894 10.7164 12.4106 10.2089 12.8798L7.12445 16.0078C6.61689 16.477 5.83602 16.477 5.32845 16.0078L2.43924 13.1144C1.85359 12.4888 1.85359 11.5112 2.43924 10.8856L5.32845 7.99218C5.83602 7.52297 6.61689 7.52297 7.12445 7.99218ZM7.98341 16.868L11.1069 13.7791C11.5754 13.2708 12.3953 13.2708 12.8638 13.7791L15.9873 16.868C16.4558 17.3763 16.4558 18.1584 15.9873 18.6667L13.0981 21.5601C12.4734 22.1466 11.4973 22.1466 10.8726 21.5601L7.98341 18.6667C7.51489 18.1584 7.51489 17.3763 7.98341 16.868ZM16.8853 16.0078L13.7618 12.8798C13.2543 12.4106 13.2543 11.5894 13.7618 11.1202L16.8853 7.99218C17.3538 7.52297 18.1347 7.52297 18.6423 7.99218L21.5315 10.8856C22.1562 11.5112 22.1562 12.4888 21.5315 13.1144L18.6423 16.0078C18.1347 16.477 17.3538 16.477 16.8853 16.0078Z"/>
</svg>
