<svg  xmlns="http://www.w3.org/2000/svg" width="100%" height="100%" viewBox="0 0 24 24">
<path d="M0.5 16.4531C0.5 16.2188 0.5 15.9453 0.539062 15.7109L1.82812 8.25C2.14062 6.29688 3.42969 4.61719 5.34375 4.14844C7.14062 3.67969 9.71875 3.25 13 3.25C16.2422 3.25 18.8203 3.67969 20.6172 4.14844C22.5312 4.61719 23.8203 6.29688 24.1328 8.25L25.4219 15.7109C25.4609 15.9453 25.5 16.2188 25.5 16.4531V16.5703C25.5 18.875 23.5859 20.75 21.2812 20.75C19.3281 20.75 17.6484 19.4609 17.1797 17.5859L17.0625 17H8.9375L8.78125 17.5859C8.3125 19.4609 6.63281 20.75 4.67969 20.75C2.375 20.75 0.5 18.875 0.5 16.5703V16.4531ZM17.375 11.0625C16.7891 11.0625 16.2812 11.375 16.0078 11.8438C15.7344 12.3516 15.7344 12.9375 16.0078 13.4062C16.2812 13.9141 16.7891 14.1875 17.375 14.1875C17.9219 14.1875 18.4297 13.9141 18.7031 13.4062C18.9766 12.9375 18.9766 12.3516 18.7031 11.8438C18.4297 11.375 17.9219 11.0625 17.375 11.0625ZM18.3125 8.875C18.3125 9.46094 18.5859 9.96875 19.0938 10.2422C19.5625 10.5156 20.1484 10.5156 20.6562 10.2422C21.125 9.96875 21.4375 9.46094 21.4375 8.875C21.4375 8.32812 21.125 7.82031 20.6562 7.54688C20.1484 7.27344 19.5625 7.27344 19.0938 7.54688C18.5859 7.82031 18.3125 8.32812 18.3125 8.875ZM8.9375 8.5625C8.9375 8.05469 8.50781 7.625 8 7.625C7.45312 7.625 7.0625 8.05469 7.0625 8.5625V9.8125H5.8125C5.26562 9.8125 4.875 10.2422 4.875 10.75C4.875 11.2969 5.26562 11.6875 5.8125 11.6875H7.0625V12.9375C7.0625 13.4844 7.45312 13.875 8 13.875C8.50781 13.875 8.9375 13.4844 8.9375 12.9375V11.6875H10.1875C10.6953 11.6875 11.125 11.2969 11.125 10.75C11.125 10.2422 10.6953 9.8125 10.1875 9.8125H8.9375V8.5625Z" fill="black"/>
</svg>
