<svg xmlns="http://www.w3.org/2000/svg" width="100%" height="100%" viewBox="0 0 24 24">
<path d="M1 16.0714C1 15.8571 1 15.6071 1.03437 15.3929L2.16875 8.57143C2.44375 6.78571 3.57812 5.25 5.2625 4.82143C6.84375 4.39286 9.1125 4 12 4C14.8531 4 17.1219 4.39286 18.7031 4.82143C20.3875 5.25 21.5219 6.78571 21.7969 8.57143L22.9312 15.3929C22.9656 15.6071 23 15.8571 23 16.0714V16.1786C23 18.2857 21.3156 20 19.2875 20C17.5687 20 16.0906 18.8214 15.6781 17.1071L15.575 16.5714H8.425L8.2875 17.1071C7.875 18.8214 6.39687 20 4.67812 20C2.65 20 1 18.2857 1 16.1786V16.0714ZM15.85 11.1429C15.3344 11.1429 14.8875 11.4286 14.6469 11.8571C14.4062 12.3214 14.4062 12.8571 14.6469 13.2857C14.8875 13.75 15.3344 14 15.85 14C16.3312 14 16.7781 13.75 17.0187 13.2857C17.2594 12.8571 17.2594 12.3214 17.0187 11.8571C16.7781 11.4286 16.3312 11.1429 15.85 11.1429ZM16.675 9.14286C16.675 9.67857 16.9156 10.1429 17.3625 10.3929C17.775 10.6429 18.2906 10.6429 18.7375 10.3929C19.15 10.1429 19.425 9.67857 19.425 9.14286C19.425 8.64286 19.15 8.17857 18.7375 7.92857C18.2906 7.67857 17.775 7.67857 17.3625 7.92857C16.9156 8.17857 16.675 8.64286 16.675 9.14286ZM8.425 8.85714C8.425 8.39286 8.04687 8 7.6 8C7.11875 8 6.775 8.39286 6.775 8.85714V10H5.675C5.19375 10 4.85 10.3929 4.85 10.8571C4.85 11.3571 5.19375 11.7143 5.675 11.7143H6.775V12.8571C6.775 13.3571 7.11875 13.7143 7.6 13.7143C8.04687 13.7143 8.425 13.3571 8.425 12.8571V11.7143H9.525C9.97187 11.7143 10.35 11.3571 10.35 10.8571C10.35 10.3929 9.97187 10 9.525 10H8.425V8.85714Z" fill="black"/>
</svg>
