<svg  xmlns="http://www.w3.org/2000/svg" width="100%" height="100%" viewBox="0 0 24 24">
<path d="M12.8208 8.21094L13.7193 2.78125C13.7974 2.35156 14.188 2 14.6568 2C14.9302 2 15.2036 2.15625 15.399 2.39062L16.063 3.25H18.0943C18.563 3.25 19.0708 3.48438 19.4224 3.83594L20.1255 4.5H22.313C22.8208 4.5 23.2505 4.92969 23.2505 5.4375V6.375C23.2505 8.13281 21.8443 9.5 20.1255 9.5H18.8755H18.2505H17.3911L17.1958 10.7109L12.8208 8.21094ZM17.0005 12.0391V20.75C17.0005 21.4531 16.4146 22 15.7505 22H14.5005C13.7974 22 13.2505 21.4531 13.2505 20.75V16.2578C12.313 16.7656 11.2193 17 10.1255 17C8.9927 17 7.93801 16.7656 7.00051 16.2578V20.75C7.00051 21.4531 6.41458 22 5.75051 22H4.50051C3.79739 22 3.25051 21.4531 3.25051 20.75V11.7656C2.1177 11.3359 1.21926 10.3984 0.906763 9.1875L0.789575 8.5625C0.594263 7.89844 1.02395 7.23438 1.68801 7.03906C2.35208 6.88281 3.01614 7.3125 3.21145 7.97656L3.3677 8.5625C3.48489 9.10938 3.9927 9.5 4.57864 9.5H5.75051H6.37551H12.5865L17.0005 12.0391ZM18.8755 5.125C18.8755 4.8125 18.563 4.5 18.2505 4.5C17.899 4.5 17.6255 4.8125 17.6255 5.125C17.6255 5.47656 17.899 5.75 18.2505 5.75C18.563 5.75 18.8755 5.47656 18.8755 5.125Z"/>
</svg>
