<svg xmlns="http://www.w3.org/2000/svg" width="100%" height="100%" viewBox="0 0 24 24">
<path d="M5.33333 21C4.58333 21 4 20.4375 4 19.7143C4 19.0313 4.58333 18.4286 5.33333 18.4286H18.6667C19.375 18.4286 20 19.0313 20 19.7143C20 20.4375 19.375 21 18.6667 21H5.33333ZM12.9167 15.4955C12.4167 16.0179 11.5417 16.0179 11.0417 15.4955L5.70833 10.3527C5.16667 9.87054 5.16667 9.02679 5.70833 8.54464C6.20833 8.02232 7.08333 8.02232 7.58333 8.54464L10.6667 11.4777V4.28571C10.6667 3.60268 11.25 3 12 3C12.7083 3 13.3333 3.60268 13.3333 4.28571V11.4777L16.375 8.54464C16.875 8.02232 17.75 8.02232 18.25 8.54464C18.7917 9.02679 18.7917 9.87054 18.25 10.3527L12.9167 15.4955Z"/>
</svg>
