<svg xmlns="http://www.w3.org/2000/svg" width="100%" height="100%" viewBox="0 0 24 24">
<path d="M10.8442 5.62198C11.3911 7.30167 10.8442 9.02042 9.55517 9.41104C8.30517 9.84073 6.82079 8.82511 6.27392 7.14542C5.72704 5.46573 6.27392 3.74698 7.56298 3.35636C8.81298 2.92667 10.2974 3.94229 10.8442 5.62198ZM5.92235 9.76261C6.66454 11.0126 6.46923 12.497 5.53173 13.0439C4.55517 13.5907 3.18798 13.0048 2.44579 11.7548C1.7036 10.4657 1.89892 9.02042 2.83642 8.47354C3.81298 7.92667 5.18017 8.51261 5.92235 9.76261ZM4.71142 17.6923C6.74267 12.1454 10.3755 10.7392 12.0161 10.7392C13.6177 10.7392 17.2505 12.1454 19.2817 17.6923C19.438 18.0439 19.5161 18.4735 19.5161 18.8642V18.9423C19.5161 19.9579 18.6958 20.7392 17.6802 20.7392C17.2114 20.7392 16.7817 20.7001 16.352 20.5829L12.9145 19.7235C12.3286 19.5673 11.7036 19.5673 11.0786 19.7235L7.6411 20.5829C7.21142 20.7001 6.78173 20.7392 6.31298 20.7392C5.29735 20.7392 4.5161 19.9579 4.5161 18.9423V18.8642C4.5161 18.4735 4.55517 18.0439 4.71142 17.6923ZM18.4614 13.0439C17.5239 12.497 17.3286 11.0126 18.0708 9.76261C18.813 8.51261 20.1802 7.92667 21.1567 8.47354C22.0942 9.02042 22.2895 10.4657 21.5474 11.7548C20.8052 13.0048 19.438 13.5907 18.4614 13.0439ZM14.1255 9.41104C12.8364 9.02042 12.2895 7.30167 12.8364 5.62198C13.3833 3.94229 14.8677 2.92667 16.1177 3.35636C17.4067 3.74698 17.9536 5.46573 17.4067 7.14542C16.8599 8.82511 15.3755 9.84073 14.1255 9.41104Z"/>
</svg>
