<svg xmlns="http://www.w3.org/2000/svg" width="100%" height="100%" viewBox="0 0 24 24">
<path d="M20.3675 2.73371L21.2668 3.63373C22.2444 4.61201 22.2444 6.2164 21.2668 7.19468L19.0771 9.38603L14.6195 4.92506L16.8092 2.73371C17.7868 1.75543 19.39 1.75543 20.3675 2.73371ZM3.74922 15.8036L13.7202 5.82508L18.1778 10.2861L8.20683 20.2645C7.97222 20.4993 7.6203 20.695 7.26839 20.8124L3.2018 21.9472C2.88898 22.0646 2.53707 21.9863 2.30246 21.7124C2.02874 21.4776 1.95054 21.1254 2.02874 20.8124L3.2018 16.7427C3.3191 16.3905 3.51461 16.0383 3.74922 15.8036ZM11.7651 6.02074L6.05623 11.7339L2.65437 8.29035C1.91144 7.58599 1.91144 6.37292 2.65437 5.62943L5.70431 2.57719C6.40815 1.87282 7.6203 1.87282 8.36324 2.57719L9.10617 3.35981C9.10617 3.39894 9.10617 3.39894 9.06707 3.39894L6.56455 5.90335C6.32994 6.13813 6.32994 6.56858 6.56455 6.80337C6.83827 7.03815 7.22929 7.03815 7.4639 6.80337L9.96641 4.29896C9.96641 4.25983 10.0055 4.25983 10.0055 4.25983L11.7651 6.02074ZM17.9823 12.2426L19.7419 14.0035C19.7419 14.0035 19.7419 14.0427 19.7028 14.0427L17.2003 16.5471C16.9656 16.7818 16.9656 17.1732 17.2003 17.4471C17.4349 17.6819 17.865 17.6819 18.0996 17.4471L20.6021 14.9427C20.6021 14.9035 20.6021 14.9035 20.6412 14.9035L21.4232 15.6862C22.1271 16.3905 22.1271 17.6036 21.4232 18.308L18.3342 21.3602C17.6304 22.1037 16.4182 22.1037 15.7144 21.3602L12.2734 17.9558L17.9823 12.2426Z"/>
</svg>
