<svg  xmlns="http://www.w3.org/2000/svg" width="100%" height="100%" viewBox="0 0 24 24">
<path d="M15.125 7C15.125 6.57031 15.0078 6.14062 14.8516 5.75H14.8125C13.9922 5.75 13.2891 5.39844 12.8203 4.8125C12.2734 5.75 11.2578 6.375 10.125 6.375H8.91406C8.875 6.60938 8.875 6.80469 8.875 7V7.625C8.875 9.38281 10.2422 10.75 12 10.75C13.7188 10.75 15.125 9.38281 15.125 7.625V7ZM7 7C7 4.26562 9.22656 2 12 2C14.7344 2 17 4.26562 17 7V7.42969C17 8.75781 17.5078 10.0469 18.4453 10.9844L18.6016 11.1406C18.7578 11.2969 18.875 11.5312 18.875 11.7656C18.875 12.2344 18.4453 12.625 17.9766 12.625H12H5.98438C5.51562 12.625 5.125 12.2344 5.125 11.7656C5.125 11.5312 5.20312 11.2969 5.35938 11.1406L5.51562 10.9844C6.45312 10.0469 7 8.75781 7 7.42969V7ZM9.53906 14.5H14.4219C17.8984 14.5 20.75 17.3516 20.75 20.8281C20.75 21.4922 20.2031 22 19.5391 22H4.42188C3.75781 22 3.25 21.4922 3.25 20.8281C3.25 17.3516 6.0625 14.5 9.53906 14.5Z"/>
</svg>
