<svg xmlns="http://www.w3.org/2000/svg" width="100%" height="100%" viewBox="0 0 24 24">
<path d="M17.8833 5C20.0593 5.00001 21.8235 6.71495 21.8235 8.83022V14.2528C21.8235 16.1096 20.2749 17.6149 18.3648 17.6149C18.0962 17.6149 17.8767 17.8219 17.8683 18.083L17.7902 20.5313C17.7774 20.9385 17.2831 21.1481 16.9674 20.8802L13.2564 17.7341C13.166 17.6573 13.0501 17.615 12.9301 17.6149H6.94031C4.76424 17.6149 3 15.9004 3 13.7847V8.83022C3 6.71495 4.76424 5 6.94031 5H17.8833ZM10.1185 7.73517C10.0228 7.73517 9.93593 7.79047 9.89801 7.87619L6.94983 14.5096C6.88148 14.6639 6.99746 14.8358 7.1703 14.8358H13.8471C14.02 14.8358 14.1359 14.6639 14.0676 14.5096L11.119 7.87619C11.0811 7.79047 10.9942 7.73518 10.8985 7.73517H10.1185ZM12.1411 7.73517C11.9678 7.73517 11.8514 7.90833 11.9211 8.06263L14.8728 14.7453C14.8844 14.7722 14.9039 14.7951 14.9288 14.8111C14.9538 14.8272 14.983 14.8358 15.013 14.8358H15.2511C16.2543 14.8358 16.9183 14.6159 17.3226 14.1757C17.671 13.7964 17.8452 13.3596 17.8452 12.865C17.8452 12.4179 17.7111 12.0437 17.443 11.7424C17.1745 11.4411 16.8147 11.2431 16.3618 11.1479C16.4875 11.0939 16.5743 11.0549 16.6233 11.0313C16.6718 11.0078 16.7591 10.9486 16.8844 10.8534C17.2534 10.5825 17.4382 10.1693 17.4382 9.61426C17.4382 9.15392 17.2746 8.74071 16.947 8.3751C16.7658 8.17879 16.4959 8.02322 16.137 7.90792C15.778 7.79305 15.3512 7.73517 14.8569 7.73517H12.1411Z"/>
</svg>
