<svg width="24" height="24" viewBox="0 0 24 24" fill="none" xmlns="http://www.w3.org/2000/svg">
<path d="M14.7247 5C14.711 5.0249 14.695 5.05135 14.6748 5.07443C14.5809 5.18174 14.4852 5.28756 14.3914 5.39498C14.2624 5.54282 14.1351 5.69205 14.006 5.83985C13.927 5.93033 13.8452 6.0186 13.7661 6.10902C13.6715 6.21723 13.5789 6.32716 13.4844 6.43542C13.4063 6.52474 13.3259 6.61214 13.2478 6.70142C13.1532 6.80962 13.0602 6.91925 12.9657 7.02758C12.9055 7.09662 12.8432 7.16397 12.7829 7.23291C12.704 7.32305 12.6264 7.41431 12.5476 7.50452C12.4883 7.57237 12.4274 7.63888 12.3682 7.70681C12.2905 7.79599 12.2144 7.88643 12.1365 7.97547C12.0594 8.06361 11.9804 8.15023 11.9033 8.23836C11.8254 8.32737 11.7491 8.41763 11.6715 8.50694C11.6164 8.57037 11.5602 8.6329 11.505 8.69624C11.4233 8.78997 11.3424 8.88435 11.2604 8.97789C11.1853 9.0637 11.1086 9.14824 11.0337 9.23428C10.9601 9.31893 10.8882 9.40508 10.8149 9.48999C10.76 9.55357 10.7036 9.61595 10.6485 9.67938C10.57 9.76981 10.4923 9.86097 10.4136 9.95133C10.3418 10.0339 10.2685 10.1154 10.1969 10.1982C10.1078 10.3012 10.0199 10.4052 9.93106 10.5083C9.87721 10.5708 9.82202 10.6322 9.76818 10.6947C9.67931 10.7978 9.59132 10.9017 9.50246 11.0048C9.43397 11.0843 9.36428 11.1628 9.2959 11.2424C9.20914 11.3434 9.12351 11.4452 9.03675 11.5462C8.96836 11.6257 8.89848 11.7041 8.83024 11.7838C8.74661 11.8814 8.66432 11.9801 8.58083 12.0779C8.51466 12.1553 8.44702 12.2316 8.381 12.3092C8.2861 12.4207 8.19241 12.5332 8.09756 12.6448C8.03157 12.7224 7.96424 12.7989 7.89795 12.8763C7.8064 12.9831 7.71492 13.09 7.62409 13.1974C7.56145 13.2715 7.50006 13.3465 7.43792 13.421C7.34704 13.5299 7.25582 13.6386 7.16505 13.7475C7.08766 13.8405 7.00356 13.9291 6.93545 14.0281C6.8588 14.1395 6.78712 14.2561 6.73096 14.3781C6.67182 14.5065 6.62829 14.6426 6.58814 14.7781C6.56326 14.8621 6.55319 14.951 6.54404 15.0384C6.53322 15.1419 6.52196 15.2465 6.5266 15.35C6.53207 15.4718 6.55394 15.593 6.5695 15.7144C6.59124 15.8839 6.6472 16.0447 6.71184 16.2021C6.78916 16.3903 6.89178 16.5659 7.01453 16.7306C7.07787 16.8155 7.13573 16.9043 7.2014 16.9991C7.17998 16.9991 7.16687 16.9991 7.15377 16.9991C5.73527 16.9991 4.31677 16.9988 2.89828 17C2.83492 17.0001 2.80682 16.9527 2.77285 16.9206C2.60964 16.7667 2.47409 16.591 2.36222 16.3985C2.26873 16.2376 2.19285 16.0693 2.13585 15.8931C2.08379 15.7321 2.04064 15.5693 2.02638 15.4005C2.01601 15.2778 1.99763 15.1548 2.00025 15.0322C2.00683 14.7247 2.06595 14.4263 2.18749 14.14C2.26452 13.9585 2.36135 13.789 2.48692 13.6357C2.56099 13.5453 2.6426 13.4607 2.71959 13.3724C2.79438 13.2868 2.86725 13.1995 2.94163 13.1135C2.99658 13.05 3.05295 12.9876 3.10805 12.9241C3.18661 12.8337 3.26427 12.7425 3.34292 12.6522C3.4148 12.5696 3.48803 12.4881 3.55968 12.4053C3.64878 12.3023 3.73653 12.1983 3.82552 12.0952C3.88142 12.0305 3.93909 11.9672 3.99494 11.9024C4.06623 11.8198 4.13604 11.7359 4.20733 11.6532C4.26318 11.5885 4.32082 11.5252 4.37673 11.4604C4.46674 11.3563 4.55573 11.2513 4.64564 11.147C4.71417 11.0676 4.78382 10.989 4.85233 10.9095C4.94222 10.8053 5.03114 10.7002 5.12111 10.596C5.19067 10.5154 5.26157 10.436 5.33119 10.3554C5.42321 10.249 5.51407 10.1416 5.60636 10.0354C5.68016 9.95042 5.75612 9.86723 5.82972 9.78211C5.91778 9.68027 6.00373 9.57672 6.09174 9.47483C6.1643 9.39083 6.23924 9.30876 6.31186 9.2248C6.39993 9.12296 6.48613 9.01961 6.57416 8.91774C6.64673 8.83375 6.72124 8.75133 6.79409 8.66757C6.88943 8.55796 6.98357 8.44737 7.07905 8.33788C7.13826 8.26997 7.19967 8.20386 7.25887 8.13594C7.3356 8.04793 7.41061 7.95851 7.48731 7.87048C7.54649 7.80255 7.60758 7.73618 7.66704 7.66848C7.75011 7.57389 7.83212 7.47844 7.91522 7.38388C7.97571 7.31506 8.03772 7.24748 8.09818 7.17863C8.18024 7.08519 8.26101 6.99067 8.34321 6.89734C8.40679 6.82516 8.47215 6.75445 8.53593 6.68244C8.62444 6.58251 8.71173 6.48156 8.80046 6.38182C8.86845 6.30539 8.93837 6.23058 9.00653 6.1543C9.09954 6.05021 9.19144 5.9452 9.2843 5.84099C9.33135 5.78818 9.3798 5.73655 9.42702 5.68388C9.52627 5.57314 9.62502 5.46197 9.72421 5.35117C9.76835 5.30187 9.81262 5.25267 9.85759 5.20409C9.91905 5.1377 9.98124 5.07195 10.0439 5.00296C11.6032 5 13.1617 5 14.7247 5Z" fill="white"/>
<path opacity="0.4" d="M21.2301 12.1584C21.2762 12.212 21.3198 12.2635 21.3637 12.3147C21.4524 12.4184 21.5408 12.5222 21.63 12.6254C21.7007 12.7073 21.7727 12.7881 21.8434 12.8698C21.919 12.9571 21.9933 13.0454 22.0691 13.1326C22.1431 13.2176 22.2172 13.3025 22.293 13.3861C22.4834 13.5961 22.6677 13.8101 22.7824 14.0709C22.8646 14.2577 22.9263 14.45 22.9607 14.651C22.9889 14.8161 23.0039 14.9819 22.996 15.1486C22.9849 15.3817 22.9493 15.6114 22.8793 15.8358C22.8296 15.995 22.7686 16.1495 22.6901 16.297C22.5922 16.4808 22.4789 16.6552 22.331 16.8061C22.274 16.8643 22.2153 16.921 22.1548 16.9757C22.1413 16.988 22.1173 16.9951 22.098 16.9952C21.8373 16.9964 21.5766 16.996 21.3159 16.996C20.1627 16.996 19.0096 16.996 17.8565 16.996C17.8386 16.996 17.8208 16.996 17.7952 16.996C17.8843 16.8692 17.9699 16.7505 18.0524 16.6296C18.2297 16.3696 18.354 16.0875 18.4145 15.7809C18.4355 15.674 18.4503 15.5655 18.4604 15.457C18.4694 15.3619 18.4755 15.2654 18.4694 15.1704C18.4535 14.9211 18.4039 14.6782 18.3042 14.4461C18.2345 14.2839 18.1484 14.1303 18.0409 13.9891C17.9721 13.8988 17.8945 13.8147 17.8212 13.7276C17.7334 13.6233 17.646 13.5188 17.5583 13.4146C17.4946 13.339 17.4306 13.2635 17.3667 13.1882C17.2755 13.0807 17.1842 12.9735 17.093 12.866C17.0272 12.7884 16.9619 12.7103 16.8957 12.6328C16.8168 12.5404 16.7369 12.4488 16.6581 12.3564C16.5901 12.2766 16.5232 12.1959 16.4554 12.116C16.3401 11.98 16.2251 11.8438 16.1089 11.7085C16.0238 11.6094 15.9364 11.5121 15.8513 11.413C15.7507 11.296 15.6521 11.1773 15.5515 11.0603C15.48 10.9771 15.406 10.896 15.3343 10.813C15.2482 10.7131 15.1639 10.6118 15.0779 10.5118C15.0084 10.431 14.9373 10.3514 14.8676 10.2708C14.791 10.1823 14.7157 10.0929 14.6389 10.0047C14.5638 9.91856 14.4868 9.83405 14.4118 9.74786C14.3193 9.64149 14.2285 9.53369 14.136 9.42732C14.061 9.34112 13.9839 9.25666 13.9089 9.17046C13.8352 9.08563 13.7635 8.99911 13.6898 8.91421C13.6159 8.82909 13.5402 8.74542 13.4661 8.66046C13.3883 8.57115 13.3117 8.48074 13.2338 8.39141C13.1598 8.30644 13.0844 8.22251 13.0102 8.13765C12.9292 8.04502 12.8496 7.95126 12.7676 7.85939C12.7509 7.84057 12.7267 7.82793 12.7031 7.81036C12.8269 7.66827 12.9416 7.53756 13.0551 7.40592C13.1589 7.2856 13.2608 7.16377 13.3647 7.04352C13.4531 6.94123 13.5437 6.84074 13.6322 6.73856C13.7392 6.61502 13.8446 6.49013 13.9516 6.36659C14.0402 6.26441 14.1307 6.16383 14.2192 6.06165C14.3262 5.93811 14.4316 5.81319 14.5386 5.68967C14.6429 5.56936 14.7489 5.45046 14.8532 5.33019C14.9426 5.22715 15.0302 5.12275 15.1202 5.02021C15.1255 5.01415 15.1511 5.01409 15.1562 5.02008C15.2951 5.18311 15.4321 5.34767 15.5704 5.51115C15.6624 5.6199 15.7568 5.72675 15.8486 5.83562C15.9364 5.93966 16.0217 6.04565 16.1091 6.14999C16.1957 6.25335 16.2839 6.35548 16.3708 6.45859C16.4644 6.56962 16.5569 6.6815 16.6507 6.79235C16.7273 6.88276 16.8057 6.97168 16.8821 7.06221C16.9728 7.16972 17.0615 7.27879 17.1524 7.38617C17.2318 7.48006 17.3138 7.57194 17.3933 7.66581C17.4842 7.77316 17.5732 7.88206 17.6638 7.98964C17.7391 8.07907 17.816 8.1673 17.8915 8.25655C17.9873 8.36971 18.0818 8.48385 18.178 8.59666C18.2734 8.70853 18.3711 8.81861 18.4662 8.93069C18.5727 9.05624 18.6768 9.18376 18.7834 9.30927C18.866 9.4065 18.9516 9.50128 19.0343 9.59838C19.1285 9.70893 19.2202 9.82149 19.3144 9.932C19.4118 10.0462 19.5115 10.1585 19.6091 10.2724C19.6909 10.368 19.7706 10.4652 19.8523 10.5608C19.9352 10.6578 20.02 10.7533 20.103 10.8501C20.1879 10.9491 20.271 11.0494 20.3559 11.1483C20.44 11.2462 20.5259 11.3428 20.6101 11.4406C20.6961 11.5405 20.7808 11.6416 20.8666 11.7417C20.9341 11.8203 21.0023 11.8983 21.0704 11.9764C21.1227 12.0364 21.1753 12.0962 21.2301 12.1584Z" fill="white"/>
<path d="M10.4449 12.9977C10.5614 13.0348 10.6767 13.0647 10.7873 13.1062C10.9907 13.1825 11.1838 13.2801 11.3594 13.4064C11.4582 13.4775 11.5511 13.5565 11.6472 13.6312C11.7799 13.7343 11.8857 13.8623 11.9878 13.9916C12.0654 14.0899 12.132 14.1975 12.1936 14.3062C12.2858 14.4694 12.3695 14.6371 12.4564 14.8031C12.4705 14.8301 12.4821 14.8583 12.499 14.895C12.5152 14.8603 12.5266 14.8329 12.5404 14.8065C12.6359 14.6234 12.7247 14.4365 12.8302 14.259C12.9077 14.1287 13.0036 14.0081 13.0984 13.8885C13.1599 13.8108 13.2303 13.7386 13.3036 13.671C13.4703 13.5174 13.6526 13.383 13.8533 13.2727C14.0523 13.1634 14.2607 13.0748 14.4811 13.0167C14.6192 12.9803 14.7604 12.9544 14.9011 12.9286C15.1865 12.8763 15.4754 12.8937 15.7633 12.8925C15.8588 12.8921 15.9543 12.8982 16.0499 12.9009C16.2627 12.9071 16.4755 12.9137 16.6883 12.9187C16.7777 12.9207 16.7809 12.9186 16.7919 13.0032C16.8074 13.1218 16.8201 13.241 16.8294 13.3603C16.8364 13.451 16.8417 13.5425 16.8384 13.6333C16.831 13.8385 16.789 14.0378 16.7118 14.2295C16.6457 14.3937 16.5645 14.5508 16.4572 14.6933C16.3802 14.7955 16.2977 14.8942 16.213 14.9905C16.15 15.0621 16.0823 15.1304 16.0115 15.1948C15.8996 15.2968 15.7759 15.3837 15.6415 15.4571C15.427 15.5742 15.1964 15.6432 14.9548 15.6791C14.827 15.698 14.6984 15.7124 14.5697 15.7241C14.4355 15.7363 14.3007 15.7422 14.1663 15.752C13.9176 15.7703 13.6683 15.7863 13.4268 15.8518C13.2381 15.903 13.0676 15.9844 12.9225 16.1192C12.7786 16.2529 12.6909 16.4168 12.6131 16.5883C12.5715 16.68 12.5387 16.7754 12.4995 16.8753C12.4738 16.8102 12.4495 16.7489 12.4253 16.6877C12.3675 16.5413 12.307 16.3952 12.2102 16.2689C12.0943 16.1179 11.9529 15.9961 11.7696 15.9201C11.6037 15.8514 11.4303 15.8156 11.2546 15.7897C11.1339 15.772 11.0107 15.7702 10.8886 15.7608C10.7361 15.7491 10.5836 15.7379 10.4313 15.7245C10.3113 15.714 10.1906 15.7064 10.0721 15.6871C9.90276 15.6594 9.73568 15.6205 9.57523 15.5582C9.40565 15.4924 9.24706 15.4078 9.10817 15.2931C9.00631 15.2089 8.90597 15.1216 8.8152 15.0266C8.65735 14.8612 8.51946 14.681 8.40691 14.4823C8.30359 14.2999 8.23225 14.1072 8.18995 13.9048C8.15502 13.7376 8.15044 13.5667 8.16176 13.3972C8.17137 13.2534 8.19695 13.1106 8.216 12.9675C8.21807 12.9518 8.22365 12.9366 8.22819 12.919C8.27723 12.919 8.32519 12.9196 8.37313 12.9189C8.54627 12.9162 8.71942 12.9134 8.89254 12.9098C8.98655 12.9078 9.08051 12.9031 9.17452 12.9011C9.34764 12.8975 9.52116 12.8868 9.69383 12.8943C9.86233 12.9015 10.0303 12.9252 10.1978 12.9466C10.2799 12.9571 10.3603 12.979 10.4449 12.9977Z" fill="white"/>
<path d="M13.2928 9.87199C13.4193 10.0784 13.5505 10.2786 13.6665 10.4867C13.7901 10.7086 13.8708 10.9478 13.9179 11.1963C13.9303 11.2615 13.9318 11.3286 13.9378 11.3949C13.9414 11.4348 13.9471 11.4748 13.9466 11.5147C13.9444 11.6997 13.9158 11.8813 13.863 12.059C13.7956 12.2856 13.7146 12.508 13.5913 12.7116C13.4716 12.9096 13.3411 13.1017 13.21 13.2929C13.0812 13.4808 12.9415 13.6617 12.8146 13.8507C12.7038 14.0158 12.6041 14.1879 12.4984 14.3587C12.478 14.3202 12.4552 14.2767 12.4321 14.2333C12.3183 14.0194 12.1761 13.8229 12.0368 13.6245C11.8551 13.3655 11.674 13.106 11.4985 12.8432C11.3686 12.6487 11.2684 12.4389 11.198 12.2173C11.1569 12.0877 11.1138 11.9573 11.0916 11.8241C11.0706 11.6984 11.0721 11.5688 11.0704 11.4408C11.0682 11.2748 11.1062 11.1144 11.1515 10.9549C11.2112 10.7449 11.3035 10.5482 11.4096 10.3579C11.541 10.1221 11.6923 9.89793 11.8546 9.68077C11.9727 9.52284 12.0898 9.36419 12.2048 9.20419C12.3023 9.06854 12.3963 8.93049 12.4918 8.79351C12.4953 8.78848 12.499 8.78356 12.5007 8.78125C12.7651 9.14541 13.028 9.50733 13.2928 9.87199Z" fill="white"/>
</svg>
