<svg width="24" height="24" viewBox="0 0 24 24" fill="none" xmlns="http://www.w3.org/2000/svg">
<path opacity="0.4" d="M18.4039 8.21179C17.679 5.65412 20.2859 4.32636 20.9969 4.01888C19.6168 3.97696 18.5433 4.04684 17.5814 4.35432C15.7273 4.87144 14.5144 6.1433 12.4931 9.06434L13.5804 12.7401L15.9643 10.2244L16.8844 13.397L10.625 19.9938C17.916 19.9938 20.4671 16.5277 19.7701 13.6346L18.4039 8.21179Z" fill="white"/>
<path d="M11.4899 14.9435L10.4025 11.2677L8.01865 13.7834L7.09857 10.6108L13.3579 4C6.06695 4 3.51581 7.46613 4.21284 10.3592L5.59298 15.796C6.31789 18.3537 3.71098 19.6814 3 19.9889C4.38013 20.0309 5.45356 19.961 6.41546 19.6535C8.25564 19.1364 9.46848 17.8645 11.4899 14.9435Z" fill="white"/>
</svg>
