<svg xmlns="http://www.w3.org/2000/svg" width="100%" height="100%" viewBox="0 0 24 24">
<path fill-rule="evenodd" clip-rule="evenodd" d="M11.157 19.0713V12.1345C11.3584 12.1535 11.5532 12.162 11.7565 12.162C12.6879 12.1664 13.6036 11.9224 14.4092 11.4551V19.0694C14.4092 19.7202 14.2544 20.2 13.9532 20.5211C13.6539 20.8404 13.2567 21 12.7731 21C12.2981 21 11.9209 20.8404 11.6111 20.5107C11.3119 20.1915 11.157 19.7107 11.157 19.0713ZM11.175 2.44804C13.1893 1.74116 15.4838 1.77916 17.2064 3.22904C17.5266 3.52072 17.8933 3.88937 18.0387 4.32167C18.2135 4.86989 17.4297 4.26466 17.3223 4.1896C16.7598 3.83141 16.1993 3.53022 15.5703 3.3231C12.1822 2.30648 8.97648 4.144 6.98313 7.00005C6.15083 8.2599 5.60832 9.59006 5.16461 11.0494C5.11521 11.2091 5.0772 11.4171 4.98979 11.5578C4.90143 11.7193 4.95179 11.1254 4.95179 11.1055C5.0183 10.5022 5.14466 9.91785 5.30143 9.33448C6.22019 6.22475 8.25249 3.63379 11.176 2.44614L11.175 2.44804ZM15.0762 8.03567C15.0852 8.35527 15.0301 8.67342 14.914 8.97133C14.7979 9.26923 14.6233 9.54084 14.4004 9.77008C14.1775 9.99932 13.911 10.1815 13.6164 10.306C13.3219 10.4304 13.0055 10.4945 12.6857 10.4945C12.366 10.4945 12.0495 10.4304 11.755 10.306C11.4605 10.1815 11.1939 9.99932 10.9711 9.77008C10.7482 9.54084 10.5736 9.26923 10.4575 8.97133C10.3414 8.67342 10.2862 8.35527 10.2952 8.03567C10.2862 7.71608 10.3414 7.39792 10.4575 7.10002C10.5736 6.80211 10.7482 6.53051 10.9711 6.30126C11.1939 6.07202 11.4605 5.8898 11.755 5.76537C12.0495 5.64094 12.366 5.57683 12.6857 5.57683C13.0055 5.57683 13.3219 5.64094 13.6164 5.76537C13.911 5.8898 14.1775 6.07202 14.4004 6.30126C14.6233 6.53051 14.7979 6.80211 14.914 7.10002C15.0301 7.39792 15.0852 7.71608 15.0762 8.03567Z"/>
</svg>
