<svg width="24" height="24" viewBox="0 0 24 24" fill="none" xmlns="http://www.w3.org/2000/svg">
<path d="M15.6226 14.3254C16.6689 13.8813 17.5626 13.1414 18.1943 12.1965C18.8259 11.2516 19.1679 10.1428 19.1783 9.00627C19.1783 7.64532 18.68 6.38981 17.7982 5.47932C17.2918 4.98742 16.6911 4.60308 16.0323 4.34943C15.3735 4.09578 14.6701 3.97806 13.9646 4.00336H7.87868C7.5624 4.00336 7.30363 4.2238 7.2653 4.5209L6.78609 8.89126C8.02997 8.92776 9.27023 8.73945 10.4472 8.33538L10.6677 6.38981C10.6772 6.29397 10.8114 6.23646 10.8977 6.29397L14.8272 9.1692C14.8942 9.23629 14.8942 9.3513 14.8176 9.39922L10.2651 12.2745C10.1693 12.332 10.0351 12.2553 10.0543 12.1403L10.2172 10.6547C8.63466 10.819 7.03535 10.6857 5.50182 10.2618L5.22388 10.1851C5.07053 10.1372 4.93636 10.3097 5.0322 10.4343L6.40273 12.1882L5.75101 18.4179C5.71267 18.7725 5.99061 19.06 6.3548 19.06H9.03836C9.34505 19.06 9.60382 18.8396 9.64216 18.5425L10.0064 15.188C10.0134 15.1296 10.0417 15.0758 10.0859 15.0369C10.1301 14.998 10.1871 14.9767 10.246 14.9772H11.3002C11.396 14.9772 11.4727 15.0155 11.5206 15.1018L13.5812 18.7629C13.6867 18.945 13.8975 19.06 14.1084 19.06H17.2711C17.7311 19.06 18.0187 18.6 17.7982 18.2166L15.6226 14.3254Z" fill="white"/>
</svg>
