<svg xmlns="http://www.w3.org/2000/svg" width="100%" height="100%" viewBox="0 0 24 24">
<path fill-rule="evenodd" clip-rule="evenodd" d="M12.2471 3.50016C7.20886 3.4704 3.04172 7.57741 3.00035 12.6139C2.97736 15.2809 4.09213 17.687 5.88724 19.3811C6.54001 19.9969 7.54904 20.0564 8.25927 19.5047C9.30507 18.692 10.6497 18.2067 12.1943 18.2067C13.7388 18.2067 15.0834 18.692 16.1293 19.5047C16.8441 20.0587 17.8577 19.9877 18.5151 19.3673C20.2849 17.6916 21.3882 15.3198 21.3882 12.6917C21.3882 7.63465 17.2992 3.52992 12.2471 3.50016ZM12.1943 17.2864C9.46597 17.2864 7.5973 15.2397 7.5973 12.7078C7.5973 10.1758 9.46597 8.0948 12.1943 8.0948C14.9226 8.0948 16.7912 10.1758 16.7912 12.7078C16.7912 15.2397 14.9249 17.2864 12.1943 17.2864Z"/>
</svg>
