<svg width="24" height="24" viewBox="0 0 24 24" fill="none" xmlns="http://www.w3.org/2000/svg">
<path d="M16.6667 5.68741C15.3644 5.25239 13.75 5 12 5C10.25 5 8.63563 5.25251 7.33334 5.68741C3.87406 6.83765 1.5 9.22249 1.5 11.9719C1.5 15.8437 6.19389 19 12 19C17.7927 19 22.5 15.8578 22.5 11.9719C22.5 9.22249 20.1259 6.83765 16.6667 5.68741ZM12 15.9839C11.1318 15.9839 10.4264 14.2304 10.3857 12.0141C10.9012 12.0702 11.4438 12.0842 12 12.0842C12.5562 12.0842 13.0989 12.0561 13.6144 12.0141C13.5737 14.2304 12.8683 15.9839 12 15.9839ZM10.4942 10.2886C10.7247 8.7315 11.3081 7.63735 12 7.63735C12.6783 7.63735 13.2616 8.7315 13.5058 10.2886C13.031 10.3307 12.5155 10.3587 12 10.3587C11.4845 10.3587 10.9826 10.3307 10.4942 10.2886ZM14.4283 10.1624C14.0756 7.7355 13.126 5.98198 12 5.98198C10.8741 5.98198 9.92447 7.72148 9.5717 10.1623C7.44193 9.81163 5.94959 9.04009 5.94959 8.12822C5.94959 6.89374 8.66287 5.89785 12 5.89785C15.3372 5.89785 18.0504 6.89374 18.0504 8.12822C18.0504 9.04009 16.5582 9.82577 14.4283 10.1624ZM3.03303 11.7193C3.03303 10.527 3.48061 9.41868 4.25396 8.45084C4.2404 8.52094 4.2404 8.59105 4.2404 8.64714C4.2404 10.1482 6.41084 11.4107 9.43599 11.8877V12.2243C9.43599 15.0019 10.1822 17.3585 11.2132 18.1723C6.62791 17.8917 3.03291 15.1143 3.03291 11.7194L3.03303 11.7193ZM12.7869 18.1863C13.8178 17.3727 14.564 15.0159 14.564 12.2383V11.9018C17.5892 11.4387 19.7596 10.1622 19.7596 8.66116C19.7596 8.59105 19.7596 8.52094 19.746 8.46486C20.5194 9.41868 20.9671 10.541 20.9671 11.7334C20.9671 15.1141 17.3721 17.8917 12.7868 18.1863H12.7869Z" />
</svg>
