<svg xmlns="http://www.w3.org/2000/svg" width="100%" height="100%" viewBox="0 0 24 24">
<path d="M15.6321 8C13.928 8 12.4051 8.90647 12.4051 10.5813C12.4051 12.5019 15.106 12.6345 15.106 13.5994C15.106 14.0057 14.6523 14.3694 13.8775 14.3694C12.7778 14.3694 11.9559 13.8612 11.9559 13.8612L11.6043 15.5512C11.6043 15.5512 12.551 15.9805 13.8081 15.9805C15.6712 15.9805 17.1372 15.0295 17.1372 13.3261C17.1372 11.2966 14.4252 11.1679 14.4252 10.2723C14.4252 9.95402 14.7975 9.60532 15.5702 9.60532C16.4419 9.60532 17.1532 9.97491 17.1532 9.97491L17.4973 8.34263C17.4973 8.34263 16.7235 8 15.6321 8ZM0.0412733 8.1232L0 8.36958C0 8.36958 0.716925 8.50422 1.36262 8.77284C2.19399 9.08083 2.25324 9.26015 2.39325 9.81706L3.91902 15.8534H5.96437L9.11536 8.1232H7.07471L5.05002 13.379L4.22383 8.92393C4.14806 8.41406 3.76425 8.1232 3.29446 8.1232H0.0412733ZM9.93593 8.1232L9.13552 11.9883L8.33511 15.8534H10.281L11.8762 8.12318L9.93593 8.1232ZM20.789 8.1232C20.3198 8.1232 20.0712 8.38102 19.8887 8.83155L17.0378 15.8534H19.0785L19.4733 14.6831H21.9594L22.1994 15.8534H24L22.4292 8.1232H20.789ZM21.0544 10.2117L21.6593 13.1124H20.0388L21.0544 10.2117Z"/>
</svg>
